<svg id="CoverPLus_Logo" data-name="CoverPLus Logo" xmlns="http://www.w3.org/2000/svg" width="80" height="14.001" viewBox="0 0 80 14.001">
  <g id="Group_2160" data-name="Group 2160" transform="translate(21.518)">
    <path id="Path_110" data-name="Path 110" d="M90,3.766A3.566,3.566,0,0,0,88.718,2.9a4.919,4.919,0,0,0-1.905-.33H81.432V14.639h2.624V10.311h2.757a4.931,4.931,0,0,0,1.905-.33A3.567,3.567,0,0,0,90,9.109a3.339,3.339,0,0,0,.718-1.242,4.649,4.649,0,0,0,0-2.866A3.351,3.351,0,0,0,90,3.766m-1.788,3.6a1.423,1.423,0,0,1-.509.55,2,2,0,0,1-.736.262,5.425,5.425,0,0,1-.869.068H84.056V4.628h2.038a5.425,5.425,0,0,1,.869.068,2.018,2.018,0,0,1,.736.262,1.425,1.425,0,0,1,.509.55,1.947,1.947,0,0,1,.192.929,1.949,1.949,0,0,1-.192.93" transform="translate(-53.916 -1.002)" fill="#34b4a1"/>
    <rect id="Rectangle_411" data-name="Rectangle 411" width="2.372" height="12.074" transform="translate(37.977 1.563)" fill="#34b4a1"/>
    <path id="Path_111" data-name="Path 111" d="M110.558,12.615a3.275,3.275,0,0,1-.434,1.919,1.635,1.635,0,0,1-1.4.584,1.29,1.29,0,0,1-1.187-.533,3.094,3.094,0,0,1-.334-1.615V8.032h-2.373V13.41a7.134,7.134,0,0,0,.142,1.48,2.835,2.835,0,0,0,.493,1.133,2.261,2.261,0,0,0,.962.719,4.112,4.112,0,0,0,1.563.253,3.418,3.418,0,0,0,1.47-.338,2.685,2.685,0,0,0,1.17-1.1h.05v1.217h2.256V8.032h-2.374Z" transform="translate(-63.223 -3.138)" fill="#34b4a1"/>
    <path id="Path_112" data-name="Path 112" d="M127.334,12.793a2.176,2.176,0,0,0-.618-.693,3.326,3.326,0,0,0-.877-.448,10,10,0,0,0-1.011-.288q-.5-.118-.986-.22a7.491,7.491,0,0,1-.86-.229,1.788,1.788,0,0,1-.611-.33.66.66,0,0,1-.234-.524.65.65,0,0,1,.134-.431.88.88,0,0,1,.326-.246,1.448,1.448,0,0,1,.426-.11,4.007,4.007,0,0,1,.434-.026,2.35,2.35,0,0,1,1.1.246,1.053,1.053,0,0,1,.518.938h2.256a2.9,2.9,0,0,0-.409-1.344,2.724,2.724,0,0,0-.86-.854,3.586,3.586,0,0,0-1.178-.456,6.769,6.769,0,0,0-1.362-.135,7.325,7.325,0,0,0-1.37.127,3.737,3.737,0,0,0-1.2.439,2.426,2.426,0,0,0-.86.854,2.661,2.661,0,0,0-.326,1.387,1.891,1.891,0,0,0,.234.972,2.045,2.045,0,0,0,.619.659,3.387,3.387,0,0,0,.877.423q.493.161,1.011.279a14.135,14.135,0,0,1,1.98.541q.711.271.71.812a.9.9,0,0,1-.15.533,1.145,1.145,0,0,1-.376.338,1.79,1.79,0,0,1-.5.186,2.5,2.5,0,0,1-.526.059,2.666,2.666,0,0,1-.677-.085,1.728,1.728,0,0,1-.577-.262,1.4,1.4,0,0,1-.409-.456,1.334,1.334,0,0,1-.158-.668h-2.256a2.97,2.97,0,0,0,.392,1.462,2.894,2.894,0,0,0,.92.939,3.85,3.85,0,0,0,1.278.507,7.066,7.066,0,0,0,1.471.152,7.276,7.276,0,0,0,1.445-.144,3.624,3.624,0,0,0,1.262-.5,2.754,2.754,0,0,0,.894-.938,2.81,2.81,0,0,0,.343-1.446,2.056,2.056,0,0,0-.234-1.023" transform="translate(-69.086 -2.986)" fill="#34b4a1"/>
    <path id="Path_113" data-name="Path 113" d="M46.054,3.534A46.712,46.712,0,0,0,41.1,9.2L37.078,6.314,35.736,7.961,41.833,14a91.494,91.494,0,0,1,5.331-8.382,30.61,30.61,0,0,1,4.424-4.8L50.978,0a25.09,25.09,0,0,0-4.924,3.534" transform="translate(-35.736)" fill="#34b4a1"/>
  </g>
  <g id="Group_2161" data-name="Group 2161" transform="translate(0 1.275)">
    <path id="Path_114" data-name="Path 114" d="M7.745,11.767a2.413,2.413,0,0,1-1.88.744,3.036,3.036,0,0,1-1.5-.347,2.88,2.88,0,0,1-1-.921A4.026,4.026,0,0,1,2.8,9.948a6.224,6.224,0,0,1-.175-1.48A6.687,6.687,0,0,1,2.8,6.93,4.105,4.105,0,0,1,3.359,5.6a2.852,2.852,0,0,1,1-.93,3.036,3.036,0,0,1,1.5-.347,2.715,2.715,0,0,1,1.722.609,2.672,2.672,0,0,1,.585.668,2.186,2.186,0,0,1,.3.837h2.54a4.91,4.91,0,0,0-.568-1.86A4.509,4.509,0,0,0,9.3,3.218a5.032,5.032,0,0,0-1.571-.837,5.955,5.955,0,0,0-1.863-.288A5.968,5.968,0,0,0,3.4,2.584,5.274,5.274,0,0,0,1.554,3.937,6.043,6.043,0,0,0,.4,5.958,7.628,7.628,0,0,0,0,8.469a7.373,7.373,0,0,0,.4,2.461,5.887,5.887,0,0,0,1.153,1.987A5.278,5.278,0,0,0,3.4,14.244a6.046,6.046,0,0,0,2.465.482,5.817,5.817,0,0,0,2.022-.338,4.677,4.677,0,0,0,1.6-.98,4.9,4.9,0,0,0,1.1-1.556A6.214,6.214,0,0,0,11.113,9.8H8.573a3.46,3.46,0,0,1-.827,1.962" transform="translate(0 -2.093)" fill="#2f2a85"/>
    <path id="Path_115" data-name="Path 115" d="M27.553,8.9a4.027,4.027,0,0,0-1.412-.93,4.944,4.944,0,0,0-1.846-.33,4.879,4.879,0,0,0-1.838.33,4.042,4.042,0,0,0-1.4.93,4.1,4.1,0,0,0-.9,1.455,5.418,5.418,0,0,0-.317,1.9,5.35,5.35,0,0,0,.317,1.894,4.1,4.1,0,0,0,.9,1.445,3.931,3.931,0,0,0,1.4.921,4.989,4.989,0,0,0,1.838.322,5.057,5.057,0,0,0,1.846-.322,3.918,3.918,0,0,0,1.412-.921,4.11,4.11,0,0,0,.9-1.445,5.363,5.363,0,0,0,.317-1.894,5.432,5.432,0,0,0-.317-1.9,4.106,4.106,0,0,0-.9-1.455M26.3,13.284a2.744,2.744,0,0,1-.343.9,1.817,1.817,0,0,1-.652.634,1.993,1.993,0,0,1-1.011.236,1.944,1.944,0,0,1-1-.236,1.829,1.829,0,0,1-.644-.634,2.731,2.731,0,0,1-.343-.9,5.173,5.173,0,0,1-.1-1.023,5.313,5.313,0,0,1,.1-1.032,2.636,2.636,0,0,1,.343-.9,1.925,1.925,0,0,1,.644-.634,1.892,1.892,0,0,1,1-.246,1.939,1.939,0,0,1,1.011.246,1.912,1.912,0,0,1,.652.634,2.649,2.649,0,0,1,.343.9,5.313,5.313,0,0,1,.1,1.032,5.173,5.173,0,0,1-.1,1.023" transform="translate(-7.891 -4.261)" fill="#2f2a85"/>
    <path id="Path_116" data-name="Path 116" d="M62.3,9.234a3.859,3.859,0,0,0-1.346-1.158,4.064,4.064,0,0,0-1.921-.431,4.421,4.421,0,0,0-1.8.355,4.239,4.239,0,0,0-1.4.973,4.287,4.287,0,0,0-.9,1.463,5.144,5.144,0,0,0-.318,1.826,5.374,5.374,0,0,0,.31,1.86,4.226,4.226,0,0,0,.877,1.454,3.813,3.813,0,0,0,1.387.938,4.879,4.879,0,0,0,1.838.33,4.482,4.482,0,0,0,2.507-.676,4.011,4.011,0,0,0,1.537-2.249H60.989a1.5,1.5,0,0,1-.635.77,2.407,2.407,0,0,1-2.774-.161A2.442,2.442,0,0,1,57,12.836h6.233a6.278,6.278,0,0,0-.167-1.944A4.807,4.807,0,0,0,62.3,9.234M57,11.314a2.749,2.749,0,0,1,.109-.575,1.762,1.762,0,0,1,.317-.609,1.8,1.8,0,0,1,.6-.482,2.042,2.042,0,0,1,.944-.194,1.656,1.656,0,0,1,1.3.473,2.789,2.789,0,0,1,.593,1.386Z" transform="translate(-21.731 -4.261)" fill="#2f2a85"/>
    <path id="Path_117" data-name="Path 117" d="M75.745,7.644a2.8,2.8,0,0,0-.869.135,3.17,3.17,0,0,0-.786.38,3,3,0,0,0-1.1,1.345h-.034V7.88H70.7v8.743h2.373v-3.94a4.87,4.87,0,0,1,.117-1.1,2.418,2.418,0,0,1,.393-.888,1.914,1.914,0,0,1,.727-.6,2.508,2.508,0,0,1,1.1-.22,4.307,4.307,0,0,1,.451.025q.234.026.4.06V7.729a1.828,1.828,0,0,0-.518-.085" transform="translate(-28.127 -4.261)" fill="#2f2a85"/>
  </g>
</svg>
