<svg width="40" height="26" viewBox="0 0 40 26" fill="none" xmlns="http://www.w3.org/2000/svg">
<rect width="40" height="26" fill="#016FD0"/>
<path fill-rule="evenodd" clip-rule="evenodd" d="M23.4185 21.886V12.5698L39.9999 12.5847V15.1581L38.0834 17.2062L39.9999 19.273V21.901H36.94L35.3138 20.1066L33.6992 21.908L23.4185 21.886Z" fill="white"/>
<path fill-rule="evenodd" clip-rule="evenodd" d="M24.5261 20.8646V13.5951H30.6901V15.2696H26.5219V16.4064H30.5907V18.0533H26.5219V19.1699H30.6901V20.8646H24.5261Z" fill="#016FD0"/>
<path fill-rule="evenodd" clip-rule="evenodd" d="M30.6594 20.8646L34.0702 17.2257L30.6594 13.5952H33.2993L35.3835 15.8992L37.4736 13.5952H40V13.6524L36.6619 17.2257L40 20.7615V20.8646H37.4481L35.327 18.5375L33.2276 20.8646H30.6594Z" fill="#016FD0"/>
<path fill-rule="evenodd" clip-rule="evenodd" d="M24.192 4.30077H28.1889L29.5928 7.48849V4.30077H34.5272L35.3782 6.68914L36.232 4.30077H39.9999V13.6169H20.0869L24.192 4.30077Z" fill="white"/>
<path fill-rule="evenodd" clip-rule="evenodd" d="M24.9487 5.31293L21.7231 12.5764H23.9354L24.544 11.1219H27.8413L28.4495 12.5764H30.7168L27.5046 5.31293H24.9487ZM25.2259 9.49182L26.1932 7.17957L27.1599 9.49182H25.2259Z" fill="#016FD0"/>
<path fill-rule="evenodd" clip-rule="evenodd" d="M30.6865 12.5751V5.31177L33.7963 5.32246L35.3964 9.78779L37.0069 5.31177H39.9998V12.5753L38.0739 12.5922V7.60279L36.256 12.5753H34.4981L32.6424 7.58589V12.5753L30.6865 12.5751Z" fill="#016FD0"/>
</svg>
